<svg xmlns="http://www.w3.org/2000/svg" viewBox="0 0 197.26 159.26"><g id="Layer_2" data-name="Layer 2"><g id="Layer_1-2" data-name="Layer 1"><path d="M99.89,49.41l1.74,3.16q-2.11,6.49-3.79,10.66a82.58,82.58,0,0,1-3.62,7.84,38.18,38.18,0,0,1-3.46,5.61,10.26,10.26,0,0,1-3,2.73,7.94,7.94,0,0,1-6.94.52,11.08,11.08,0,0,1-5.74-5.33A27,27,0,0,1,72,64.49a53.66,53.66,0,0,1,.2-12.21q.81-6.69,2.72-15.51,1.44-6.53,1.14-7.07a.86.86,0,0,0-.54-.43.8.8,0,0,0-.63.05q-.87.48-3.25,6.8A183.61,183.61,0,0,0,66.31,53.8Q63.37,65.16,60.87,80c-.11.53-.39,2.31-.86,5.34a50.3,50.3,0,0,1-1.19,6.06,3.24,3.24,0,0,1-1.21,1.92Q56.32,94,54,91.93a18.44,18.44,0,0,1-4-5,8.88,8.88,0,0,1-.95-4.5c0-1.8.37-5.21,1-10.21S51.23,63,51.6,59.61s.62-7.39.76-12q.16-4.82,0-7.54a10.2,10.2,0,0,0-1.06-4.37c-.52-.95-1.06-1.28-1.61-1q-1.74,1-4,8.26a152.26,152.26,0,0,0-4.32,20.39q-2.06,13.08-3.14,29.38c-.17,3.68-.34,6.19-.53,7.53a3.35,3.35,0,0,1-1.56,2.7q-1.6.88-4.88-1.77a17.47,17.47,0,0,1-4.44-4.76,3.25,3.25,0,0,1-.28-1.82Q28.17,83.23,29,75.44t1-14.53a78,78,0,0,0-.18-10.78,16.71,16.71,0,0,0-1.45-5.92c-.73-1.31-1.69-1.65-2.88-1q-1.47.81-4,4.63t-6.11,10q-3.6,6.22-5.92,9.74T5.59,72c-1,.55-1.82.27-2.45-.87a37.8,37.8,0,0,1-1.79-4.78A24.27,24.27,0,0,1,0,60.75c0-1.58.73-4.1,2.26-7.58S4.71,47.89,5,47.74s.42-.1.54.12,0,.37-.07.75a35.4,35.4,0,0,0-1.44,4,4.84,4.84,0,0,0,0,2.75A119.84,119.84,0,0,1,14.85,39.42q5.19-6.29,7.76-7.69c.85-.47,2-.34,3.38.38A20.88,20.88,0,0,1,30.13,35a14.16,14.16,0,0,1,2.41,2.47,18.56,18.56,0,0,1,1.84,6.19c.37,2.56.65,5.63.83,9.19s.43,8,.73,13.35q.69-4.39,1.42-8.19c.48-2.54,1-5,1.49-7.46s1-4.89,1.59-7.38a69.24,69.24,0,0,1,3.09-10.27,66.25,66.25,0,0,1,4.13-9c1.43-2.52,2.52-4,3.29-4.41a4.07,4.07,0,0,1,3.84.19,7.3,7.3,0,0,1,3.34,3.1q.73,1.34,1,6.05t.2,12.44q-.12,7.73-.54,20Q61,52.94,63.44,44t3.69-13.19a64.52,64.52,0,0,1,2.32-6.66q1.47-3.32,2.8-6.94l2.09-5.72A22.15,22.15,0,0,1,75.87,8,4.8,4.8,0,0,1,77.6,6.19q1.2-.65,4.52,1.11t3.76,2.54a4.52,4.52,0,0,1,.18,2.89c-.23,1.28-.82,3.75-1.75,7.41a126.64,126.64,0,0,0-3.42,19.47,85.44,85.44,0,0,0-.12,16.26q.72,6.93,2.51,10.19a5.3,5.3,0,0,0,2.37,2.52,3.31,3.31,0,0,0,2.87-.38,7.72,7.72,0,0,0,2.43-2,21.25,21.25,0,0,0,1.94-3.1c.66-1.24,1.28-2.41,1.86-3.53q1.31-2.21,2.44-4.54c.76-1.55,1.35-2.77,1.76-3.65S99.67,49.81,99.89,49.41Z"/><path d="M91.84,40.6q-.84,4.07-1.42,5.88c-.39,1.22-.83,1.94-1.33,2.18a1.67,1.67,0,0,1-1.32,0,3.52,3.52,0,0,1-1.4-1,6.29,6.29,0,0,1-1.12-1.66,5.43,5.43,0,0,1-.42-1.18,4.91,4.91,0,0,1-.07-1.31A10.91,10.91,0,0,1,85,41.87q.21-1,.57-2.22c.14-.51.26-.94.35-1.29a2,2,0,0,1,.39-.81,3.14,3.14,0,0,1,.92-.6,4.3,4.3,0,0,1,1-.32c.34-.05.54,0,.58.06a2.72,2.72,0,0,1,0,1.24,13.14,13.14,0,0,1-.64,2.48,23.13,23.13,0,0,1-1.38,3.19,5.64,5.64,0,0,0,.37,1.55c.21.44.49.58.83.42A1.54,1.54,0,0,0,88.5,45c.19-.35.49-1,.89-1.93s.77-1.77,1.1-2.5a12.7,12.7,0,0,0,.67-2.25,22,22,0,0,1,.55-2.21c.38-1.17.66-2,.82-2.32a1.46,1.46,0,0,1,.64-.76.59.59,0,0,1,.62,0,2.37,2.37,0,0,1,.58.89,1.76,1.76,0,0,1,.19.56,2.79,2.79,0,0,1,0,.64c0,.28-.1.79-.23,1.55s-.27,1.66-.44,2.7a8.11,8.11,0,0,0-.12,1.72,3.49,3.49,0,0,0,.2,1.27c.26.55.6.71,1,.51a2.74,2.74,0,0,0,1-1c.33-.51.8-1.38,1.41-2.59l.49,1C97.23,42,96.72,43.2,96.37,44a12.66,12.66,0,0,1-1,1.87,2.64,2.64,0,0,1-1,1c-.87.41-1.55.1-2.05-.94A5.56,5.56,0,0,1,92,44.1C91.9,43.31,91.86,42.14,91.84,40.6Z"/><path d="M97.44,39.78l-.18-.37q2-6.15,2.72-8.57c-.37-1.39-.13-2.29.75-2.7a1.62,1.62,0,0,1,.79-.15l.23.25a1.94,1.94,0,0,0,.19.56,5.4,5.4,0,0,0,.75,1c.4.47.73.86,1,1.19a6.35,6.35,0,0,1,.71,1.17,4.86,4.86,0,0,1,.46,2.2,7.28,7.28,0,0,1-.5,2.45,16.39,16.39,0,0,1-1.45,2.86,7.72,7.72,0,0,0,.93-.33,3.86,3.86,0,0,0,1.23-1,9.79,9.79,0,0,0,1.11-1.58q.51-.9,1.14-2.25l.5,1a25.61,25.61,0,0,1-2.18,4.65,5.83,5.83,0,0,1-2.24,2.29,4.22,4.22,0,0,1-3.3,0,3.67,3.67,0,0,1-1.59-1A8.27,8.27,0,0,1,97.44,39.78Zm4.69-5.14-1.36-2.15q-.45,1.56-2.15,6.16a2.94,2.94,0,0,1,1.54-.06,10,10,0,0,1,1.59.86,4.11,4.11,0,0,0,1.07-2,3.77,3.77,0,0,0-.41-2.34l-.14-.27Z"/><path d="M108.9,23.9l.68-.32a9.52,9.52,0,0,1,.5-2.8,2.39,2.39,0,0,1,1.24-1.35c.57-.27.92-.27,1,0a3.34,3.34,0,0,1-.19,1.33,14.11,14.11,0,0,0-.36,1.87l1-.34.68-.23a27.9,27.9,0,0,1-.62,4.45l-.76.29c-.21.08-.42.15-.63.24l-.76.29c-.14,1.17-.23,2.21-.27,3.1a15,15,0,0,0,.06,2.37,5.59,5.59,0,0,0,.49,1.83c.34.72.8.94,1.37.67a3.46,3.46,0,0,0,1.25-1.37c.44-.72,1-1.78,1.65-3.16l.49,1c-1.36,4.38-2.72,6.88-4.06,7.52a1.52,1.52,0,0,1-1.39,0,2.43,2.43,0,0,1-1.09-1.2,5.47,5.47,0,0,1-.41-1.49c-.09-.61-.18-1.54-.27-2.81-.09.19-.17.38-.24.56s-.14.35-.2.5-.14.31-.21.48-.14.33-.21.51l-.51-1.08a27.44,27.44,0,0,0,1.68-6.7l-.45.19c-.14,0-.3.13-.49.22a6.42,6.42,0,0,0-1.31.77l-.31.27a.88.88,0,0,1-.2.16s-.07,0-.1-.06a3.71,3.71,0,0,1-.1-1.85,6.16,6.16,0,0,1,.37-1.76,2.71,2.71,0,0,1,.85-1.1A10.07,10.07,0,0,1,108.9,23.9Z"/><path d="M115.76,27.15a21.21,21.21,0,0,1,3.08-5.38,10,10,0,0,1,3-2.68.94.94,0,0,1,.74,0,2.18,2.18,0,0,1,.74.42,1.66,1.66,0,0,1,.41.45.51.51,0,0,1,0,.52,4.33,4.33,0,0,1-.61.68l.58.51.57.5a1.77,1.77,0,0,1,.29.39,3.63,3.63,0,0,1-.09,1.76c-.18.92-.3,1.58-.35,2a2.42,2.42,0,0,0,.26,1.33,1.08,1.08,0,0,0,1.6.66q1.1-.53,2.45-3.67l.45.95q-1.86,6.26-3.57,7.07a1.06,1.06,0,0,1-1,0,2.48,2.48,0,0,1-.82-1.06,12.36,12.36,0,0,1-.8-4q-1.08,3.6-1.68,5.2a3.37,3.37,0,0,1-1.32,1.93,1.49,1.49,0,0,1-1.14-.19,6.28,6.28,0,0,1-1.64-1.1,5.47,5.47,0,0,1-1.33-1.77,5,5,0,0,1-.44-1.29,3.3,3.3,0,0,1,.07-1.27A15.45,15.45,0,0,1,115.76,27.15Zm6.66-5.25a37.24,37.24,0,0,0-4.29,5.88,3.88,3.88,0,0,0-.46,3.49,1.83,1.83,0,0,0,.56.74.58.58,0,0,0,.62.1,2.13,2.13,0,0,0,.5-.51,13.38,13.38,0,0,0,1.8-3.94Q121.78,25.47,122.42,21.9Z"/><path d="M128.63,25.94l-.48-1a15,15,0,0,0,.47-2.31,1.88,1.88,0,0,1-.92-.07,1.22,1.22,0,0,1-.58-.65,3.45,3.45,0,0,1-.21-1.64,9,9,0,0,1,.4-2.15,3.88,3.88,0,0,1,.79-1.56,1,1,0,0,1,.37-.31.29.29,0,0,1,.45.15,3.43,3.43,0,0,1,0,1.3,38.61,38.61,0,0,1,3.82-2.41.83.83,0,0,1,1.23.29,4.05,4.05,0,0,1,.66.95,1.32,1.32,0,0,1,0,.85,14.6,14.6,0,0,1-.46,1.58,10.17,10.17,0,0,0-.47,2.59,4.31,4.31,0,0,0,.18,1.85c.23.48.65.59,1.25.3s1.44-1.47,2.4-3.5l.49,1c-.43,1.32-.81,2.37-1.12,3.15a12.16,12.16,0,0,1-1,2,2.64,2.64,0,0,1-1.06,1.07,1.45,1.45,0,0,1-1.38-.08,3.31,3.31,0,0,1-1.26-1.54,4.59,4.59,0,0,1-.38-1.69,11.52,11.52,0,0,1,.13-2.34,23.6,23.6,0,0,1,.54-2.71l-.89.66-1.06.76-.85.61A12.53,12.53,0,0,1,128.63,25.94Z"/><path d="M144.7,16.9c-.43,1.48-.83,2.75-1.21,3.82a21.46,21.46,0,0,1-1,2.47,2.39,2.39,0,0,1-.67,1,1.45,1.45,0,0,1-1.22-.22,7.16,7.16,0,0,1-3-3.15,4.91,4.91,0,0,1,0-3.74,14.78,14.78,0,0,1,2.13-4.14,7.59,7.59,0,0,1,2.33-2.34,2.17,2.17,0,0,1,2,.26c0-2.06.07-3.9.17-5.55a27.37,27.37,0,0,1,.45-3.76c.19-.87.38-1.35.59-1.45a1,1,0,0,1,.79,0,1.23,1.23,0,0,1,.65.62,7.49,7.49,0,0,1,.13,3.35c-.16,1.69-.34,3.34-.52,4.95a39.19,39.19,0,0,0-.23,4.63,9,9,0,0,0,.77,3.75c.44.94,1,1.27,1.57,1a2.84,2.84,0,0,0,1.08-1.27,33.51,33.51,0,0,0,1.37-3.18l.54,1.14c-.87,4-1.91,6.24-3.13,6.81a1.25,1.25,0,0,1-1.32-.06,3.8,3.8,0,0,1-1.11-1.52A16.62,16.62,0,0,1,144.7,16.9Zm-.65-4.35a22.5,22.5,0,0,0-2.55,3,15.26,15.26,0,0,0-1.59,2.5,2.9,2.9,0,0,0,0,1.46A5.64,5.64,0,0,0,140.2,21a.72.72,0,0,0,.37.36.55.55,0,0,0,.47,0,1,1,0,0,0,.41-.43,10,10,0,0,0,.55-1.15l.47-1.09c.1-.24.34-.76.7-1.56a19,19,0,0,0,.76-1.84,4.91,4.91,0,0,0,.26-1.32A4.47,4.47,0,0,0,144.05,12.55Z"/><path d="M159.79,96.93l.49,1a8.86,8.86,0,0,1-1.06,2,4,4,0,0,1-1.68,1.1c-.59,2.25-1.4,3.61-2.43,4.1a2.79,2.79,0,0,1-1.87.17,4.32,4.32,0,0,1-1.89-1,6.15,6.15,0,0,1-1.49-2,5.24,5.24,0,0,1-.38-2.53,11.34,11.34,0,0,1,2.09-5.85,5.19,5.19,0,0,1,1.92-1.7,2.72,2.72,0,0,1,1.26-.32.74.74,0,0,1,.72.43,1.24,1.24,0,0,1,0,.89,1.4,1.4,0,0,1,1,0,2,2,0,0,1,.72.95,7.07,7.07,0,0,1,.54,2.05,10.22,10.22,0,0,1,.06,2.59l.41.15.23-.11a1.19,1.19,0,0,0,.46-.38,4.29,4.29,0,0,0,.33-.5Zm-5.16-2.58c-.62.92-1.14,1.74-1.55,2.46a11.68,11.68,0,0,0-1,2,3.56,3.56,0,0,0-.24,1.7c.29,1.29.46,2,.5,2.08.32.68,1,.8,1.92.35a5.43,5.43,0,0,0,1.7-2.22,4.53,4.53,0,0,1-.93-1.28,6,6,0,0,1-.54-2.2A18.73,18.73,0,0,1,154.63,94.35Z"/><path d="M161.83,96l.34,1.44a2.17,2.17,0,0,0,.2.59c.27.56.63.73,1.1.51s1.12-1.6,2-4.16a5.76,5.76,0,0,1-.35-2.7,14.83,14.83,0,0,1,.54-3.11c.28-.94.57-1.49.86-1.63.46-.21.83,0,1.11.58A4.62,4.62,0,0,1,168,89a11.76,11.76,0,0,1,0,2.08,17.32,17.32,0,0,1-.38,2.47c.49.35.86.46,1.13.33a1.71,1.71,0,0,0,.64-.6,10,10,0,0,0,.69-1.23l.49,1a9.14,9.14,0,0,1-.93,1.59,3.25,3.25,0,0,1-1.19.87,3.5,3.5,0,0,1-1.32.11,35,35,0,0,1-1.4,3.75,3.22,3.22,0,0,1-1.22,1.6,2.4,2.4,0,0,1-2.45-.42,6.09,6.09,0,0,1-2.1-2.47c-.65-1.39-.66-3.42,0-6.09a8.29,8.29,0,0,1,.56-1.73,1.75,1.75,0,0,1,.83-.78,2.53,2.53,0,0,1,1-.25c.33,0,.54,0,.61.21a5.19,5.19,0,0,1,0,2.78A14.09,14.09,0,0,1,161.83,96Z"/><path d="M177.56,88.55l.54,1.14A17.58,17.58,0,0,1,176.66,94a4.37,4.37,0,0,1-1.76,2,2.22,2.22,0,0,1-2.54-.44,7.47,7.47,0,0,1-2-2.63,6,6,0,0,1-.42-1.23,4.34,4.34,0,0,1-.14-1c0-.29,0-.77.11-1.43.39-3,1.19-4.78,2.42-5.37.63-.3,1.07-.2,1.3.29a4,4,0,0,1,.12,1.85,7.31,7.31,0,0,1-.38,2c-.49,1.31-.79,2.2-.91,2.67a2.09,2.09,0,0,0,.14,1.37,1.35,1.35,0,0,0,.87.73,1.74,1.74,0,0,0,1.27-.14,3.53,3.53,0,0,0,1.36-1.3A22,22,0,0,0,177.56,88.55Zm-4.37-6.47a1.25,1.25,0,0,1-.88,0,1,1,0,0,1-.7-.58,2.85,2.85,0,0,1-.07-1.84,2,2,0,0,1,1-1.49,1.29,1.29,0,0,1,.92-.08,1.2,1.2,0,0,1,.71.69,2.75,2.75,0,0,1,.06,1.78A2,2,0,0,1,173.19,82.08Z"/><path d="M180.18,88l.18.39a2.38,2.38,0,0,0,1.14,1.23,1.67,1.67,0,0,0,1.43,0,4.27,4.27,0,0,0,1.41-1.11,9.64,9.64,0,0,0,1.18-1.72c.35-.65.76-1.5,1.23-2.53l.45,1A21.76,21.76,0,0,1,185.43,90a5.8,5.8,0,0,1-2.6,2.61,2.89,2.89,0,0,1-2.71,0A5.31,5.31,0,0,1,177.91,90a6.53,6.53,0,0,1-.64-3.33,12.74,12.74,0,0,1,1.16-4A10.8,10.8,0,0,1,180.06,80a5.83,5.83,0,0,1,1.85-1.51,2,2,0,0,1,1.32-.21,1.3,1.3,0,0,1,.91.8,3.61,3.61,0,0,1,.19,2.31,9.29,9.29,0,0,1-1.32,3A24.34,24.34,0,0,1,180.18,88Zm-.32-1.08a10.2,10.2,0,0,0,1.76-2.5,7.76,7.76,0,0,0,.73-2.25,2.76,2.76,0,0,0,0-1.31c-.12-.24-.28-.31-.5-.2a2.26,2.26,0,0,0-.74.79,8.25,8.25,0,0,0-.84,1.54,7.79,7.79,0,0,0-.52,1.91A4.77,4.77,0,0,0,179.86,86.91Z"/><path d="M186.89,84.66l-.18-.37q2-6.15,2.73-8.57c-.38-1.39-.13-2.29.74-2.7a1.77,1.77,0,0,1,.79-.15l.24.25a2,2,0,0,0,.19.57,5.94,5.94,0,0,0,.74,1c.41.46.74.86,1,1.18a6,6,0,0,1,.71,1.17,4.87,4.87,0,0,1,.47,2.2,7.28,7.28,0,0,1-.5,2.45,15.83,15.83,0,0,1-1.46,2.86,6.08,6.08,0,0,0,.94-.33,3.94,3.94,0,0,0,1.23-1,9.34,9.34,0,0,0,1.1-1.58c.35-.6.73-1.35,1.15-2.25l.49,1a26.36,26.36,0,0,1-2.17,4.65,5.83,5.83,0,0,1-2.24,2.29,4.2,4.2,0,0,1-3.31,0,3.7,3.7,0,0,1-1.59-1A8.27,8.27,0,0,1,186.89,84.66Zm4.69-5.14-1.36-2.15q-.45,1.56-2.14,6.16a2.9,2.9,0,0,1,1.53-.06,9.43,9.43,0,0,1,1.6.87,4.16,4.16,0,0,0,1.06-2,3.71,3.71,0,0,0-.41-2.34,1.71,1.71,0,0,0-.14-.27C191.68,79.68,191.63,79.6,191.58,79.52Z"/><path d="M163.28,105.46l1.74,3.17q-2.11,6.48-3.8,10.66a82.57,82.57,0,0,1-3.61,7.84,38.73,38.73,0,0,1-3.46,5.61,10.39,10.39,0,0,1-3,2.73,8,8,0,0,1-6.94.52,11,11,0,0,1-5.74-5.33,27,27,0,0,1-3.13-10.12,53,53,0,0,1,.2-12.2q.81-6.69,2.72-15.51,1.44-6.52,1.13-7.08a.84.84,0,0,0-.53-.42.79.79,0,0,0-.63,0c-.58.32-1.66,2.58-3.25,6.8a182.73,182.73,0,0,0-5.32,17.68q-2.94,11.36-5.44,26.17-.17.81-.87,5.35a50.2,50.2,0,0,1-1.18,6.05,3.2,3.2,0,0,1-1.22,1.93q-1.27.7-3.65-1.38a18.47,18.47,0,0,1-4-5,9,9,0,0,1-.94-4.5q0-2.72,1-10.21T115,115.67q.56-5.08.75-12,.17-4.81,0-7.54a10.35,10.35,0,0,0-1.06-4.37c-.52-1-1.06-1.28-1.61-1q-1.74.94-4,8.26a154.28,154.28,0,0,0-4.31,20.38q-2.05,13.08-3.14,29.39c-.17,3.68-.34,6.19-.53,7.52A3.35,3.35,0,0,1,99.54,159q-1.61.89-4.88-1.77a17.47,17.47,0,0,1-4.44-4.76,3.18,3.18,0,0,1-.28-1.82q1.62-11.4,2.43-19.2t1-14.52a77.94,77.94,0,0,0-.18-10.78,16.4,16.4,0,0,0-1.46-5.92c-.72-1.32-1.68-1.65-2.87-1-1,.53-2.3,2.08-4,4.63s-3.71,5.89-6.11,10-4.38,7.39-5.92,9.73-2.85,3.81-3.92,4.4-1.83.26-2.45-.87a37.8,37.8,0,0,1-1.79-4.78,24.27,24.27,0,0,1-1.35-5.62c0-1.58.72-4.1,2.26-7.58s2.45-5.29,2.72-5.44.43-.09.55.12a1.27,1.27,0,0,1-.07.76,34.72,34.72,0,0,0-1.44,4,4.81,4.81,0,0,0,0,2.74A120.33,120.33,0,0,1,78.24,95.48Q83.43,89.2,86,87.79c.85-.48,2-.35,3.37.38a20.58,20.58,0,0,1,4.15,2.92,13.83,13.83,0,0,1,2.4,2.48,18.54,18.54,0,0,1,1.85,6.19c.37,2.56.65,5.63.83,9.19s.43,8,.73,13.34q.69-4.38,1.41-8.18c.49-2.54,1-5,1.5-7.46s1.05-4.89,1.59-7.38A68.89,68.89,0,0,1,106.92,89a65.05,65.05,0,0,1,4.13-9c1.43-2.52,2.52-4,3.29-4.41a4.07,4.07,0,0,1,3.84.19,7.3,7.3,0,0,1,3.34,3.1c.49.89.84,2.9,1,6s.28,7.3.2,12.44-.26,11.82-.54,20q2.17-8.43,4.6-17.41t3.69-13.2a65.06,65.06,0,0,1,2.32-6.65q1.47-3.32,2.8-6.94c.88-2.42,1.58-4.32,2.08-5.72a21.17,21.17,0,0,1,1.54-3.41A4.8,4.8,0,0,1,141,62.25c.8-.43,2.3-.07,4.52,1.11s3.47,2,3.76,2.54a4.5,4.5,0,0,1,.18,2.88q-.34,1.93-1.76,7.42a126.57,126.57,0,0,0-3.41,19.47,84.62,84.62,0,0,0-.12,16.26q.72,6.93,2.51,10.18a5.29,5.29,0,0,0,2.37,2.53,3.31,3.31,0,0,0,2.87-.38,7.72,7.72,0,0,0,2.43-2.05,21.81,21.81,0,0,0,1.94-3.1c.66-1.24,1.28-2.41,1.86-3.53.86-1.47,1.68-3,2.44-4.54s1.35-2.77,1.76-3.65S163.06,105.86,163.28,105.46Z"/></g></g></svg>